M48
;FILE_FORMAT=4:2
METRIC,0000.00
;TYPE=PLATED
T01C0.50
T03C0.90
T04C1.00
T05C2.70
T06C3.20
T07C3.50
;TYPE=NON_PLATED
T02C0.90
%
T01
X+006760Y+019680
Y+020320
X+006580Y+021960
X+007280Y+017200
X+007200Y+017100
X+007120Y+017200
X+007180Y+018040
X+007100Y+017780
X+007500Y+018800
X+007120Y+019300
X+007000Y+019180
X+007500Y+020320
X+007176Y+021654
X+007480Y+022240
X+007120Y+023200
X+008120Y+017000
X+008300Y+017200
X+008120Y+020940
X+007760Y+022320
X+008120Y+022380
X+007880Y+023320
X+008700Y+017340
X+008880Y+018960
X+008760Y+018920
X+008500Y+019300
X+008760Y+019660
X+008560Y+019560
X+008680Y+019300
X+008920Y+020180
X+009000Y+022340
X+008660Y+023320
X+009300Y+016180
X+009400Y+017340
X+009520Y+016960
X+009652Y+018161
X+009398
X+009640Y+018440
X+009340Y+019600
X+009652Y+021654
X+009460Y+021980
Y+022320
X+010280Y+016160
X+010540
Y+016840
X+010040Y+016960
X+010360Y+016840
X+010420Y+017080
X+010160Y+017780
X+010420Y+018000
Y+018520
X+010540Y+019300
X+010520Y+019700
Y+020000
X+010360Y+020900
X+010160Y+020700
X+010540Y+021520
X+010280Y+021480
X+010160Y+022200
X+010420Y+022960
X+011300Y+017180
X+011040Y+017220
X+011320Y+016880
X+010920Y+016960
Y+017820
X+011300Y+018920
X+011080Y+018780
X+011360Y+018640
X+011040Y+018580
X+011300Y+018440
X+011060Y+019700
X+010922Y+020130
X+011180Y+020240
X+010920Y+020900
X+010780Y+021520
X+010920Y+021780
X+011040Y+022280
X+011300Y+022200
X+010920Y+023040
X+011180
X+012060Y+016620
X+011560Y+016680
Y+016160
X+011820
X+011800Y+017100
X+011560Y+017140
Y+018920
X+011820Y+018960
X+011680Y+018560
X+011940Y+018520
X+012060Y+018460
X+011500Y+018440
X+011800Y+018360
X+011660Y+019620
X+012040Y+019540
X+012060Y+019380
Y+020480
X+011680Y+020160
X+011940Y+020120
X+011800Y+022760
X+012080Y+022720
X+011680Y+023040
X+012080Y+023240
X+012700Y+017140
X+012440Y+017100
X+012580Y+018900
X+012320Y+018800
X+012820Y+018940
X+012780Y+018420
X+012700Y+019540
X+012460
X+012320Y+020240
X+012580
X+012820
X+012720Y+020080
X+012480Y+020040
X+012820Y+022500
X+013200Y+017220
X+013500Y+018620
X+013260Y+018580
X+013080Y+018520
X+013220Y+019240
X+013080Y+019600
X+013460Y+019660
X+013040Y+019280
X+013600Y+019620
Y+019380
X+013420
X+013208Y+020384
X+013080Y+020240
Y+022500
X+013340
X+013580
X+014000Y+016680
X+013840Y+016160
X+014100
X+014340Y+018040
X+014220Y+018700
X+014020Y+018780
X+013840Y+018660
X+014360Y+018700
X+014020Y+018540
X+013840Y+019580
X+014100Y+019500
X+013840Y+019380
X+014380Y+020000
X+014100Y+023160
X+014820Y+016160
X+014720Y+016960
X+014860Y+017060
X+014720Y+018160
X+014820Y+018700
X+015120Y+018760
X+015040Y+018860
X+014960Y+018960
X+014700Y+019680
X+014580Y+019720
X+015120Y+019440
X+015060Y+019660
X+014860Y+019680
X+014680Y+019340
X+014700Y+020320
X+014620Y+020080
X+014960Y+019940
X+014860Y+020060
X+014780Y+019900
X+014640Y+023420
Y+023160
X+015900Y+017400
X+015800Y+017720
X+015680Y+018160
X+015380Y+019180
Y+019400
X+015400Y+021000
X+015748Y+021654
X+015740Y+022500
X+015480Y+022320
X+015880Y+022600
X+015500
X+015400Y+022700
X+015526Y+023240
X+016320Y+016440
X+016640Y+017060
X+016140Y+017780
X+016260Y+018040
X+016500Y+018540
X+016620Y+018800
X+016500Y+020920
X+016100Y+020960
X+016260Y+021100
X+016380Y+021200
X+016120Y+021480
X+016560Y+022300
X+016506Y+023060
X+017000Y+017060
X+017400Y+017660
X+016900Y+020840
X+017400
X+017272Y+021654
X+017140Y+021800
X+016960
Y+021500
X+017140Y+022240
X+016866Y+023060
X+017026Y+023240
X+007360Y+017460
X+007260Y+018280
X+007000Y+019820
X+008060Y+016700
X+007940
X+007900Y+016820
X+007820Y+016720
X+008620Y+019080
X+008500
X+009640Y+021400
X+009660Y+022840
X+010420Y+022120
X+010160Y+022920
X+011320Y+016720
X+011080Y+016760
X+011180Y+022840
X+010920
X+011875Y+016701
X+011560Y+022120
X+011680Y+022840
X+011940Y+022800
X+012860Y+018320
X+012360Y+018280
X+012440Y+022800
X+014380Y+020600
X+014920Y+018280
X+014620Y+020600
X+014840Y+019080
X+014640Y+019060
X+015920Y+019040
X+016380Y+018280
X+016140Y+020600
X+016260
X+016380
X+016500
X+016620
X+006920Y+017340
X+008420Y+018980
X+006840Y+019560
Y+019940
X+008382Y+021654
X+009144Y+022606
X+008380Y+022420
X+010660Y+018140
X+009840Y+017960
X+012260Y+018360
X+010700Y+018520
X+010660Y+018380
X+011440Y+019540
X+012200
X+010732Y+020130
Y+020320
X+011440Y+020200
X+012140Y+020060
X+010620Y+020700
X+009900Y+021520
X+010660
X+009860Y+021780
X+009940Y+022280
X+011420Y+023040
X+013720Y+016680
X+014478Y+017272
X+012960Y+017180
X+014480Y+017780
X+013680Y+018740
X+013000Y+018420
X+015240Y+019177
X+012920Y+019540
X+012980Y+020160
X+014500Y+020040
X+014478Y+021654
X+016764Y+016193
X+016760Y+016440
X+015939Y+017272
X+016700Y+017400
X+017560Y+017060
X+015980Y+018540
X+016060Y+020200
X+015980Y+021100
X+016700Y+021500
X+016040Y+022660
X+009144Y+020574
X+008420Y+019800
X+009140Y+019760
X+009144Y+019050
X+010660Y+022840
X+011420
X+012200Y+022800
X+009900Y+022880
X+015240Y+017526
X+014500Y+020600
X+014480Y+019820
X+015240Y+022098
Y+023622
X+016060Y+017520
T02
X+017016Y+022500
X+016305
T03
X+007493Y+020955
X+006985
X+007340Y+023340
X+013462Y+017082
X+013970
X+014224Y+020384
X+017399Y+019622
Y+020130
X+007100Y+023580
X+015080Y+016240
X+014953Y+016431
X+015080Y+016621
X+013716Y+020384
X+017273Y+022480
X+017527
X+008900Y+018068
Y+017560
X+008285Y+022987
Y+022733
X+008128Y+021336
X+008382
X+007366
X+007620
X+006858
X+008128Y+022098
X+008382
X+007620
X+007366
X+006858
X+007874Y+021336
X+007112
X+007874Y+022098
X+007112
X+008128Y+020066
Y+020320
Y+019304
Y+019558
Y+018542
Y+018796
Y+017780
Y+018034
X+006604Y+020320
Y+020066
Y+019304
Y+019558
Y+018542
Y+018796
Y+017780
Y+018034
X+008128Y+019812
Y+019050
Y+017526
Y+018288
X+006604Y+019812
Y+019050
Y+018288
Y+017526
X+012954Y+019812
X+013208
X+012192
X+012446
X+011430
X+011684
X+010922
X+012954Y+020574
X+013208
X+012192
X+012446
X+011430
X+011684
X+010922
X+012700Y+019812
X+011938
X+011176
X+012700Y+020574
X+011938
X+011176
X+009920Y+019740
X+009730Y+019613
X+009539Y+019740
X+016764Y+022860
X+017018
X+016002
X+016256
X+015494
X+016764Y+023622
X+017018
X+016256
X+016002
X+015494
X+016510Y+022860
X+015748
X+016510Y+023622
X+015748
X+017018Y+021336
X+017272
X+016256
X+016510
X+015748
X+017018Y+022098
X+017272
X+016510
X+016256
X+015748
X+016764Y+021336
X+016002
X+016764Y+022098
X+016002
X+017018Y+020066
Y+020320
Y+019304
Y+019558
Y+018542
Y+018796
Y+017780
Y+018034
X+015494Y+020320
Y+020066
Y+019304
Y+019558
Y+018542
Y+018796
Y+017780
Y+018034
X+017018Y+019812
Y+019050
Y+017526
Y+018288
X+015494Y+019812
Y+019050
Y+018288
Y+017526
X+014478Y+021082
X+013716
X+013970
X+012954
X+013208
X+012192
X+012446
X+011430
X+011684
X+010668
X+010922
X+009906
X+010160
X+014478Y+022606
X+013716
X+013970
X+012954
X+013208
X+012192
X+012446
X+011430
X+011684
X+010668
X+010922
X+009906
X+010160
X+011938Y+021082
X+012700
X+013462
X+014224
X+009652
X+010414
X+011176
X+011938Y+022606
X+012700
X+013462
X+014224
X+009652
X+010414
X+011176
X+014478Y+017526
X+013716
X+013970
X+012954
X+013208
X+012192
X+012446
X+011430
X+011684
X+010668
X+010922
X+009906
X+010160
X+014478Y+019050
X+013716
X+013970
X+012954
X+013208
X+012192
X+012446
X+011430
X+011684
X+010668
X+010922
X+009906
X+010160
X+011938Y+017526
X+012700
X+013462
X+014224
X+009652
X+010414
X+011176
X+011938Y+019050
X+012700
X+013462
X+014224
X+009652
X+010414
X+011176
T04
X+008001Y+016510
Y+016256
X+010300Y+020140
X+010046
X+011176Y+019431
X+010668
X+010922
X+015431Y+016256
Y+016510
X+007112Y+016256
X+007569
X+007112Y+016916
X+007569
X+008509Y+016256
X+008966
X+008509Y+016916
X+008966
X+008446Y+020765
Y+020511
X+007874Y+023622
X+007620
X+008890
X+008382
X+008636
X+017399Y+018669
Y+018161
Y+018415
X+016764Y+016764
X+016510
X+015748
X+016002
X+017018
X+016256
X+009652Y+023368
X+010414
X+010160
X+011176
X+010922
X+011938
X+011684
X+012700
X+012446
X+013462
X+013208
X+014224
X+013970
X+012192
X+011430
X+010668
X+009906
X+014478
X+013716
X+012954
X+009652Y+023622
X+010414
X+010160
X+011176
X+010922
X+011938
X+011684
X+012700
X+012446
X+013462
X+013208
X+014224
X+013970
X+012192
X+011430
X+010668
X+009906
X+014478
X+013716
X+012954
X+014478Y+016510
X+013716
X+013970
X+012954
X+013208
X+012192
X+012446
X+011430
X+011684
X+010668
X+010922
X+009906
X+010160
X+011938
X+012700
X+013462
X+014224
X+009652
X+010414
X+011176
X+014478Y+016256
X+013716
X+013970
X+012954
X+013208
X+012192
X+012446
X+011430
X+011684
X+010668
X+010922
X+009906
X+010160
X+011938
X+012700
X+013462
X+014224
X+009652
X+010414
X+011176
T05
X+006887Y+022860
T06
X+007487Y+022860
T07
X+006373Y+016186
Y+023692
X+017757Y+016187
Y+023693
T00
M30
